# xmcd
# Copyright (C) 1995-1998 Ti Kan
#
# Track frame offsets:
#       150
#       13982
#       36086
#       54003
#       71644
#       92146
#       112377
#       132312
#       153629
#       171705
#       191476
#       216151
#
# Disc length: 3165 seconds
#
# Revision: 0
# Processed by: cddbd v1.5.2PL0 Copyright (c) Steve Scherf et al.
# Submitted via: CD-Import v1.0
#
DISCID=b50c5b0c
DTITLE=Fratellis - Here We Stand
DYEAR=2008
DGENRE=
TTITLE0=My Friend John
TTITLE1=A Heady Tale
TTITLE2=Shameless
TTITLE3=Look Out Sunshine!
TTITLE4=Stragglers Moon
TTITLE5=Mistress Mabel
TTITLE6=Jesus Stole My Baby
TTITLE7=Babydoll
TTITLE8=Tell Me A Lie
TTITLE9=Acid Jazz Singer
TTITLE10=Lupe Brown
TTITLE11=Milk And Money
EXTD=
EXTT0=
EXTT1=
EXTT2=
EXTT3=
EXTT4=
EXTT5=
EXTT6=
EXTT7=
EXTT8=
EXTT9=
EXTT10=
EXTT11=
PLAYORDER=
